<svg width="31" height="30" viewBox="0 0 31 30" fill="none" xmlns="http://www.w3.org/2000/svg">
<path d="M15.5 26.2021C21.4941 26.2021 26.457 21.2285 26.457 15.2451C26.457 9.25098 21.4834 4.28809 15.4893 4.28809C9.50586 4.28809 4.54297 9.25098 4.54297 15.2451C4.54297 21.2285 9.5166 26.2021 15.5 26.2021ZM11.6543 12.6025C11.3428 12.291 11.3535 11.8184 11.6543 11.5176C11.9658 11.2061 12.4277 11.2061 12.75 11.5176L15.4893 14.2676L20.001 9.75586C20.3125 9.44434 20.7637 9.45508 21.0859 9.75586C21.4082 10.0566 21.3975 10.5508 21.0859 10.8516L16.0479 15.9004C15.7363 16.2119 15.2529 16.2227 14.9414 15.9004L11.6543 12.6025ZM4.65039 21.1963V24.4512C4.65039 25.751 5.27344 26.3525 6.59473 26.3525H10.0322C7.67969 25.2031 5.92871 23.5059 4.65039 21.1963ZM26.3496 21.1963C25.0713 23.5059 23.3203 25.2031 20.9785 26.3525H24.4053C25.7266 26.3525 26.3496 25.751 26.3496 24.4512V21.1963Z" fill="#9B9B9B"/>
</svg>
