<svg width="31" height="30" viewBox="0 0 31 30" fill="none" xmlns="http://www.w3.org/2000/svg">
<path d="M15.5 26.2021C21.4941 26.2021 26.457 21.2285 26.457 15.2451C26.457 9.25098 21.4834 4.28809 15.4893 4.28809C9.50586 4.28809 4.54297 9.25098 4.54297 15.2451C4.54297 21.2285 9.5166 26.2021 15.5 26.2021ZM9.07617 8.28418C10.1504 7.28516 11.4609 6.5332 12.9004 6.11426C12.1592 6.86621 11.5254 7.92969 11.0527 9.24023C10.29 8.99316 9.62402 8.6709 9.07617 8.28418ZM18.1104 6.125C19.5391 6.54395 20.8389 7.2959 21.9238 8.29492C21.376 8.68164 20.71 8.99316 19.9473 9.24023C19.4746 7.94043 18.8408 6.87695 18.1104 6.125ZM12.4385 9.59473C13.04 7.95117 13.8779 6.76953 14.8018 6.36133V9.8418C13.9531 9.80957 13.1689 9.72363 12.4385 9.59473ZM16.209 6.36133C17.1221 6.76953 17.96 7.95117 18.5615 9.59473C17.8311 9.72363 17.0469 9.80957 16.209 9.8418V6.36133ZM6.02539 14.5361C6.17578 12.5811 6.93848 10.7656 8.12012 9.30469C8.78613 9.80957 9.64551 10.2285 10.6445 10.5508C10.333 11.7539 10.1396 13.0967 10.0859 14.5361H6.02539ZM20.9141 14.5361C20.8604 13.0967 20.667 11.7539 20.3555 10.5508C21.3545 10.2285 22.2139 9.80957 22.8691 9.31543C24.0615 10.7656 24.8242 12.5811 24.9746 14.5361H20.9141ZM16.209 14.5361V11.249C17.1758 11.2168 18.0996 11.0986 18.9697 10.916C19.249 12.0225 19.4209 13.2471 19.4746 14.5361H16.209ZM11.5254 14.5361C11.5791 13.2471 11.7617 12.0225 12.0303 10.916C12.9004 11.0986 13.8242 11.2168 14.8018 11.249V14.5361H11.5254ZM6.02539 15.9434H10.0859C10.1396 17.415 10.333 18.7686 10.6445 19.9824C9.65625 20.3047 8.80762 20.7236 8.15234 21.2178C6.94922 19.7461 6.17578 17.9199 6.02539 15.9434ZM11.5254 15.9434H14.8018V19.2949C13.835 19.3271 12.9111 19.4453 12.0518 19.6172C11.7617 18.5 11.5684 17.2539 11.5254 15.9434ZM16.209 19.2949V15.9434H19.4746C19.4316 17.2539 19.2383 18.5 18.9482 19.6172C18.0996 19.4453 17.165 19.3271 16.209 19.2949ZM20.3555 19.9824C20.667 18.7686 20.8604 17.415 20.9141 15.9434H24.9746C24.8242 17.9199 24.0508 19.7461 22.8477 21.2178C22.1924 20.7236 21.3438 20.3047 20.3555 19.9824ZM16.209 20.7021C17.0361 20.7344 17.8203 20.8096 18.54 20.9492C17.9385 22.5498 17.1113 23.7314 16.209 24.1396V20.7021ZM12.46 20.9492C13.1797 20.8096 13.9639 20.7344 14.8018 20.7021V24.1396C13.8887 23.7314 13.0615 22.5498 12.46 20.9492ZM19.9365 21.293C20.6885 21.54 21.3438 21.8516 21.8916 22.2275C20.8174 23.2051 19.5391 23.9463 18.1211 24.3652C18.8408 23.624 19.4639 22.5713 19.9365 21.293ZM9.1084 22.2275C9.65625 21.8516 10.3115 21.54 11.0635 21.293C11.5361 22.5713 12.1592 23.624 12.8896 24.3652C11.4717 23.9463 10.1826 23.2051 9.1084 22.2275Z" fill="#9B9B9B"/>
</svg>
