<svg width="31" height="30" viewBox="0 0 31 30" fill="none" xmlns="http://www.w3.org/2000/svg">
<path d="M15.5 26.2021C21.4941 26.2021 26.457 21.2285 26.457 15.2451C26.457 9.25098 21.5049 4.28809 15.5107 4.28809C14.9414 4.28809 14.6621 4.63184 14.6621 5.19043V9.34766C14.6621 9.82031 14.9844 10.1855 15.4463 10.1855C15.9189 10.1855 16.2412 9.82031 16.2412 9.34766V6.14648C20.9678 6.52246 24.6201 10.4219 24.6201 15.2451C24.6201 20.3154 20.5703 24.376 15.5 24.376C10.4297 24.376 6.3584 20.3154 6.36914 15.2451C6.37988 12.9785 7.18555 10.9268 8.53906 9.34766C8.86133 8.92871 8.88281 8.42383 8.52832 8.04785C8.17383 7.67188 7.58301 7.7041 7.18555 8.17676C5.55273 10.0889 4.54297 12.5703 4.54297 15.2451C4.54297 21.2285 9.5166 26.2021 15.5 26.2021ZM17.2188 16.792C18.0674 15.9004 17.8955 14.708 16.875 13.999L11.1924 10.0244C10.6553 9.64844 10.0967 10.2178 10.4727 10.7441L14.4365 16.4268C15.1562 17.4473 16.3486 17.6299 17.2188 16.792Z" fill="#9B9B9B"/>
</svg>
