<svg width="31" height="30" viewBox="0 0 31 30" fill="none" xmlns="http://www.w3.org/2000/svg">
<path d="M15.5 26.2021C21.4941 26.2021 26.457 21.2285 26.457 15.2451C26.457 9.25098 21.4834 4.28809 15.4893 4.28809C9.50586 4.28809 4.54297 9.25098 4.54297 15.2451C4.54297 21.2285 9.5166 26.2021 15.5 26.2021ZM9.88184 16.4053C9.45215 16.4053 9.12988 16.083 9.12988 15.6533C9.12988 15.2344 9.45215 14.9121 9.88184 14.9121H14.748V8.41309C14.748 7.99414 15.0703 7.67188 15.4893 7.67188C15.9082 7.67188 16.2412 7.99414 16.2412 8.41309V15.6533C16.2412 16.083 15.9082 16.4053 15.4893 16.4053H9.88184Z" fill="#9B9B9B"/>
</svg>
